<?xml version="1.0" encoding="utf-8"?>
<svg width="800px" height="800px" viewBox="0 0 24 24" fill="none" xmlns="http://www.w3.org/2000/svg">
<path fill-rule="evenodd" clip-rule="evenodd" d="M5.24075 1.34921C5.43073 1.12756 5.70808 1 6 1H18C18.2919 1 18.5693 1.12756 18.7593 1.34921L21.7593 4.84921C22.0524 5.19119 22.0807 5.68694 21.8284 6.06008L16.8348 13.4463C17.5667 14.4408 18 15.6705 18 17C18 20.3137 15.3137 23 12 23C8.6863 23 6 20.3137 6 17C6 15.6705 6.43332 14.4408 7.16523 13.4463L2.17157 6.06008C1.9193 5.68694 1.94762 5.19119 2.24075 4.84921L5.24075 1.34921ZM8.62688 12.0374C9.15335 11.679 9.74008 11.4019 10.3686 11.2247L7.54251 6.5145L5.85634 3.7042L4.2556 5.57173L8.62688 12.0374ZM7.7662 3L8.9662 5H15.0338L16.2338 3H7.7662ZM18.1437 3.7042L19.7444 5.57173L15.3731 12.0374C14.8467 11.679 14.2599 11.4019 13.6314 11.2247L16.4575 6.5145L18.1437 3.7042ZM12 10.0563L13.8338 7H10.1662L12 10.0563ZM12 13C10.8758 13 9.86143 13.4624 9.13359 14.2101C8.43108 14.9317 8 15.9145 8 17C8 19.2091 9.79087 21 12 21C14.2091 21 16 19.2091 16 17C16 15.9145 15.5689 14.9317 14.8664 14.2101C14.1386 13.4624 13.1242 13 12 13Z" fill="#F26722"/>
</svg>